<svg width="414" height="214" viewBox="0 0 414 214" fill="none" xmlns="http://www.w3.org/2000/svg">
<g clip-path="url(#clip0_3847_19982)">
<path d="M77.1056 213.999C136.258 213.999 184.211 211.517 184.211 208.455C184.211 205.393 136.258 202.911 77.1056 202.911C17.9528 202.911 -30 205.393 -30 208.455C-30 211.517 17.9528 213.999 77.1056 213.999Z" fill="#E6E6E6"/>
<path d="M126.919 94.6368L120.761 91.5556L125.893 77.69L127.245 70.6975C127.421 69.789 127.832 68.9426 128.437 68.2429C129.042 67.5431 129.82 67.0145 130.693 66.7098C131.566 66.4052 132.503 66.3351 133.412 66.5068C134.321 66.6784 135.168 67.0857 135.87 67.6879C136.911 68.5803 137.564 69.8422 137.692 71.2074C137.82 72.5726 137.413 73.9343 136.557 75.005L131.537 81.2848L126.919 94.6368Z" fill="#FFB9B9"/>
<path d="M128.973 93.0951L127.837 96.6526L122.74 112.634C122.242 114.2 121.301 115.59 120.033 116.635C118.765 117.681 117.222 118.337 115.59 118.527C113.958 118.717 112.305 118.431 110.831 117.705C109.357 116.978 108.124 115.841 107.279 114.431L90.7565 86.091C90.4923 85.6494 90.2668 85.1856 90.0825 84.705C89.2841 82.6078 89.3239 80.2834 90.1936 78.2147C91.0633 76.1461 92.696 74.4924 94.7524 73.5972C96.8089 72.702 99.1309 72.6343 101.236 73.408C103.341 74.1817 105.067 75.7374 106.056 77.7517L116.143 99.2584L120.76 88.9879L128.973 93.0951Z" fill="#E6E6E6"/>
<path d="M126.594 196.325L115.305 197.352L109.147 152.674C88.8491 156.092 69.6997 157.187 53.1362 153.052C51.7366 152.708 50.4232 152.078 49.2786 151.201C48.134 150.324 47.1828 149.22 46.4848 147.958C45.7868 146.696 45.3571 145.303 45.2226 143.867C45.0881 142.431 45.2518 140.982 45.7033 139.613C47.6856 133.692 51.1781 127.347 55.2664 120.835L82.4634 130.592L83.4897 134.7L112.499 131.026C113.964 130.84 115.451 130.962 116.867 131.382C118.282 131.803 119.595 132.514 120.721 133.469C121.848 134.425 122.763 135.604 123.409 136.933C124.055 138.262 124.419 139.711 124.475 141.187L126.594 196.325Z" fill="#2F2E41"/>
<path d="M138.889 204.982C138.998 204.218 138.885 203.439 138.565 202.736C138.245 202.034 137.73 201.438 137.082 201.019L125.494 195.328L116.757 196.432L114.693 203.835C114.606 204.362 114.627 204.902 114.755 205.421C114.883 205.94 115.115 206.428 115.437 206.854C115.759 207.281 116.165 207.637 116.629 207.902C117.093 208.166 117.606 208.334 118.137 208.393L134.441 208.429C135.484 208.547 136.533 208.252 137.363 207.609C138.194 206.965 138.741 206.023 138.889 204.982Z" fill="#2F2E41"/>
<path d="M129.448 190.613L118.158 191.64L112 146.962C91.7023 150.38 72.5529 151.475 55.9895 147.341C54.5898 146.996 53.2765 146.366 52.1319 145.489C50.9872 144.612 50.0361 143.508 49.3381 142.246C48.6401 140.984 48.2104 139.591 48.0759 138.155C47.9414 136.719 48.1051 135.271 48.5566 133.901C50.5389 127.98 54.0314 121.635 58.1196 115.123L85.3166 124.88L86.3429 128.989L115.352 125.314C116.817 125.128 118.304 125.25 119.72 125.67C121.135 126.091 122.448 126.802 123.574 127.757C124.701 128.713 125.616 129.893 126.262 131.221C126.909 132.55 127.272 133.999 127.329 135.475L129.448 190.613Z" fill="#2F2E41"/>
<path d="M141.742 199.271C141.85 198.507 141.738 197.728 141.418 197.025C141.097 196.323 140.583 195.727 139.935 195.309L128.346 189.617L119.609 190.721L117.546 198.124C117.459 198.651 117.479 199.191 117.607 199.71C117.735 200.229 117.967 200.717 118.289 201.143C118.612 201.57 119.017 201.926 119.481 202.191C119.946 202.455 120.459 202.623 120.99 202.682L137.293 202.718C138.337 202.836 139.385 202.541 140.216 201.898C141.047 201.254 141.594 200.312 141.742 199.271Z" fill="#2F2E41"/>
<path d="M108.408 82.7701L92.4998 80.716L98.6574 61.7148H114.052L108.408 82.7701Z" fill="#E6A7A7"/>
<path d="M108.921 68.3912C116.573 68.3912 122.777 62.1834 122.777 54.5257C122.777 46.868 116.573 40.6602 108.921 40.6602C101.27 40.6602 95.0664 46.868 95.0664 54.5257C95.0664 62.1834 101.27 68.3912 108.921 68.3912Z" fill="#FFB9B9"/>
<path d="M112.736 101.93C111.93 104.172 110.76 106.267 109.274 108.13C107.156 110.731 104.612 112.953 101.749 114.7C101.25 115.023 100.733 115.332 100.198 115.637L97.1415 118.243L86.3432 127.446L56.5798 116.15C63.1447 101.551 71.3346 90.0096 80.7202 80.714C82.6701 77.8519 85.4499 75.6567 88.6848 74.4241C91.9198 73.1916 95.4545 72.9811 98.8127 73.8208L109.948 76.6067C113.909 85.9624 115.382 94.5651 112.736 101.93Z" fill="#E6E6E6"/>
<path d="M117.623 80.8965C117.421 81.0948 117.305 81.365 117.301 81.6482C117.297 81.9314 117.405 82.2048 117.601 82.409C117.944 82.5573 124.733 90.3007 125.15 89.7677C125.292 89.7692 125.433 89.7423 125.565 89.6887C125.696 89.635 125.816 89.5557 125.916 89.4553L146.632 68.8136C146.746 68.701 146.832 68.5643 146.886 68.4137C146.94 68.2631 146.959 68.1023 146.942 67.9433C147.501 67.4189 138.588 62.1331 138.315 61.8455C138.111 61.7113 137.868 61.6511 137.625 61.6751C137.382 61.699 137.155 61.8055 136.982 61.9768L117.623 80.8965Z" fill="#3F3D56"/>
<path d="M144.857 67.7228L144.013 67.1849C144.098 67.3434 144.127 67.5254 144.096 67.7022C144.066 67.879 143.977 68.0407 143.845 68.1616C143.712 68.2825 143.543 68.3559 143.365 68.3702C143.186 68.3844 143.007 68.3387 142.857 68.2403L137.402 64.487C137.28 64.4007 137.184 64.2821 137.126 64.1444C137.067 64.0068 137.047 63.8556 137.069 63.7076C137.091 63.5595 137.154 63.4205 137.25 63.306C137.346 63.1915 137.473 63.1059 137.615 63.0588C137.399 62.9854 137.049 62.5464 136.815 62.8228L118.463 80.8711C117.81 81.1896 125.132 87.5393 125.136 87.7888C125.682 88.3984 144.506 68.1905 144.907 68.1766C144.937 68.1455 144.961 68.108 144.975 68.0666C144.99 68.0253 144.995 67.9812 144.99 67.9377C144.985 67.8942 144.971 67.8523 144.948 67.8151C144.925 67.7779 144.893 67.7464 144.857 67.7228Z" fill="white"/>
<path d="M123.676 76.8849L129.305 82.1966L142.696 68.9568L135.9 64.5303L123.676 76.8849Z" fill="#5199FF"/>
<path d="M142.175 72.2255C142.212 72.2609 142.261 72.2807 142.312 72.2807C142.364 72.2807 142.413 72.261 142.45 72.2255C142.512 72.0541 143.941 71.0123 143.621 70.7779C143.584 70.7424 143.535 70.7227 143.483 70.7227C143.432 70.7226 143.383 70.7424 143.346 70.7778C143.284 70.9493 141.855 71.991 142.175 72.2255Z" fill="#E6E6E6"/>
<path d="M140.478 74.1999C140.54 74.0284 141.969 72.9866 141.649 72.7521C141.411 72.4348 140.379 73.859 140.202 73.9241C140.021 74.1006 140.302 74.3808 140.478 74.1999Z" fill="#E6E6E6"/>
<path d="M125.121 81.4448C125.146 83.1523 122.466 83.1524 122.491 81.4446C122.466 79.7372 125.146 79.7372 125.121 81.4448Z" fill="#5199FF"/>
<path opacity="0.2" d="M109.273 108.13C107.156 110.731 104.611 112.953 101.748 114.7C101.25 115.023 100.733 115.332 100.197 115.637L97.141 118.243C91.0747 110.264 91.4163 86.0225 91.4163 86.0225L100.65 86.9465L109.273 108.13Z" fill="black"/>
<path d="M127.394 101.771L121.236 98.6893L126.368 84.8238L127.72 77.8313C127.896 76.9228 128.307 76.0764 128.911 75.3766C129.516 74.6769 130.294 74.1482 131.167 73.8436C132.04 73.5389 132.978 73.4689 133.887 73.6406C134.795 73.8122 135.643 74.2195 136.345 74.8217C137.385 75.714 138.039 76.976 138.167 78.3412C138.295 79.7064 137.888 81.068 137.032 82.1388L132.012 88.4186L127.394 101.771Z" fill="#FFB9B9"/>
<path d="M121.236 96.1219L129.446 100.23L123.215 119.768C122.768 121.171 121.966 122.435 120.887 123.436C119.808 124.438 118.489 125.143 117.057 125.485C115.292 125.905 113.439 125.752 111.766 125.048C110.094 124.343 108.689 123.124 107.755 121.567L91.2327 93.2256C90.0618 91.2726 89.7004 88.9389 90.2257 86.7229C90.7509 84.5069 92.1212 82.5843 94.0438 81.3657C95.0779 80.7103 96.2382 80.2801 97.4494 80.1032C98.6605 79.9263 99.8953 80.0066 101.073 80.3388C102.251 80.6711 103.346 81.2479 104.287 82.0316C105.228 82.8154 105.993 83.7886 106.533 84.8879L116.617 106.393L121.236 96.1219Z" fill="#E6E6E6"/>
<path d="M114.137 49.1249C115.266 50.0672 116.54 50.8198 117.91 51.3535C119.301 51.8207 120.916 51.8307 122.158 51.0483C123.622 50.1257 124.29 48.2517 124.14 46.5267C123.99 44.8017 123.145 43.21 122.134 41.8042C120.275 39.2155 117.829 37.1037 114.998 35.6414C112.167 34.1791 109.031 33.4076 105.845 33.39C102.659 33.3723 99.5142 34.1091 96.6671 35.54C93.8201 36.9709 91.3517 39.0555 89.4634 41.6234C88.1672 43.3861 87.1398 45.433 87.0274 47.6187C86.8294 51.4707 89.4632 55.0665 89.1816 58.9133C88.9434 62.1669 86.6099 64.954 83.8461 66.684C81.0823 68.4139 77.8884 69.291 74.7983 70.3299C71.7081 71.3688 68.5832 72.6507 66.2961 74.9753C64.009 77.3 62.7475 80.9073 64.0029 83.918C65.0345 86.3919 67.4858 87.9652 69.9438 89.0307C76.5348 91.8551 83.9382 92.1332 90.7222 89.8112C93.2233 88.9435 95.9545 87.2073 95.9925 84.5585C96.009 83.4088 95.492 82.3294 95.1815 81.2224C94.8711 80.1154 94.8129 78.7951 95.5916 77.9497C96.5573 76.9012 98.342 77.1427 99.4962 77.9789C100.65 78.8151 101.401 80.0835 102.353 81.1442C104.161 83.1584 106.902 84.4451 109.581 84.0657C112.26 83.6863 114.681 81.4026 114.792 78.6973C114.982 74.0501 109.164 71.1406 108.532 66.5327C108.109 63.4552 110.111 60.6398 111.846 58.0639C113.581 55.488 115.194 52.2606 113.98 49.4018" fill="#2F2E41"/>
<path d="M39.4808 157.865C37.576 157.864 35.7011 157.392 34.023 156.49C32.345 155.588 30.9159 154.285 29.8632 152.696C28.8104 151.107 28.1667 149.283 27.9894 147.385C27.812 145.487 28.1066 143.575 28.8468 141.818L30.5473 142.538C29.8047 144.302 29.5995 146.246 29.9576 148.126C30.3157 150.006 31.221 151.739 32.5599 153.105C33.8988 154.472 35.6115 155.412 37.4827 155.807C39.3539 156.203 41.3002 156.036 43.0769 155.328L43.7622 157.044C42.4005 157.589 40.9472 157.867 39.4808 157.865Z" fill="#3F3D56"/>
<path d="M27.4755 145.778C26.1762 145.736 24.9441 145.19 24.0398 144.256C23.1355 143.321 22.6299 142.071 22.6299 140.77V57.8396C23.0651 57.4034 23.5891 57.0663 24.1662 56.851C24.7433 56.6358 25.36 56.5476 25.9743 56.5924C26.5886 56.6372 27.186 56.8139 27.7258 57.1106C28.2657 57.4073 28.7353 57.8169 29.1028 58.3115C52.7021 90.2468 53.7416 118.884 31.3817 144.101C30.8934 144.65 30.2903 145.085 29.6152 145.375C28.9402 145.665 28.2097 145.802 27.4755 145.778Z" fill="#5199FF"/>
<path d="M21.937 140.77V58.0703C22.3574 58.0708 22.77 58.1835 23.1323 58.3968C23.4946 58.6101 23.7935 58.9163 23.9982 59.2838C34.7381 78.5756 42.7054 93.8615 42.4878 107.715C42.2934 120.086 33.6089 125.798 26.0335 138.456C25.6084 139.163 25.0078 139.748 24.2899 140.153C23.572 140.559 22.7614 140.771 21.937 140.77Z" fill="#3F3D56"/>
<path d="M57.2537 157.634H42.9421V153.938L54.4837 150.704L57.2537 157.634Z" fill="#3F3D56"/>
<path d="M52.1753 153.938H90.0316C90.0316 156.021 89.2047 158.018 87.7329 159.491C86.2611 160.964 84.2648 161.792 82.1834 161.792H60.0236C57.9421 161.792 55.9458 160.964 54.474 159.491C53.0022 158.018 52.1753 156.021 52.1753 153.938Z" fill="#3F3D56"/>
<path d="M75.2585 160.868H70.1802V165.026H75.2585V160.868Z" fill="#3F3D56"/>
<path d="M77.5665 164.102H68.3333V176.576H77.5665V164.102Z" fill="#3F3D56"/>
<path d="M76.8751 183.276H69.0269V199.909H76.8751V183.276Z" fill="#3F3D56"/>
<path d="M81.03 185.124H64.8718L67.1801 174.96H81.03V185.124Z" fill="#3F3D56"/>
<path d="M66.7186 184.198L33.9406 199.445L33.4789 201.755H28.8623L29.083 198.22C29.1564 197.046 29.5352 195.911 30.182 194.928C30.8288 193.945 31.7211 193.149 32.7703 192.617L67.642 174.958L66.7186 184.198Z" fill="#3F3D56"/>
<path d="M79.1824 184.198L113.807 199.445L114.269 201.755H118.885L118.665 198.22C118.591 197.046 118.212 195.911 117.566 194.928C116.919 193.945 116.027 193.149 114.977 192.617L81.029 174.958L79.1824 184.198Z" fill="#3F3D56"/>
<path d="M30.7084 211.457C33.5131 211.457 35.7867 209.182 35.7867 206.375C35.7867 203.568 33.5131 201.293 30.7084 201.293C27.9037 201.293 25.6301 203.568 25.6301 206.375C25.6301 209.182 27.9037 211.457 30.7084 211.457Z" fill="#3F3D56"/>
<path d="M89.34 211.457C92.1447 211.457 94.4183 209.182 94.4183 206.375C94.4183 203.568 92.1447 201.293 89.34 201.293C86.5353 201.293 84.2617 203.568 84.2617 206.375C84.2617 209.182 86.5353 211.457 89.34 211.457Z" fill="#3F3D56"/>
<path d="M116.577 211.457C119.382 211.457 121.655 209.182 121.655 206.375C121.655 203.568 119.382 201.293 116.577 201.293C113.772 201.293 111.499 203.568 111.499 206.375C111.499 209.182 113.772 211.457 116.577 211.457Z" fill="#3F3D56"/>
<path d="M91.1875 203.142L87.4942 202.68L86.5708 198.984L74.106 183.738L79.6459 178.193L89.5059 193.192C90.6029 194.861 91.1875 196.814 91.1875 198.812V203.142Z" fill="#3F3D56"/>
<path d="M106.348 155.093H45.0926C44.2949 155.093 43.5051 154.935 42.7681 154.63C42.0311 154.324 41.3615 153.877 40.7974 153.312C40.2334 152.748 39.786 152.077 39.4807 151.34C39.1754 150.602 39.0183 149.812 39.0183 149.014V145.718C39.019 144.322 39.3278 142.943 39.9226 141.68C40.5175 140.417 41.3838 139.301 42.4595 138.412C52.8 129.86 61.1698 122.588 72.7197 123.167C82.6987 123.668 95.313 136.235 106.191 140.113C108.02 140.772 109.6 141.981 110.716 143.575C111.832 145.168 112.428 147.068 112.423 149.014C112.423 149.812 112.266 150.602 111.96 151.34C111.655 152.077 111.208 152.748 110.644 153.312C110.079 153.877 109.41 154.324 108.673 154.63C107.936 154.935 107.146 155.093 106.348 155.093Z" fill="#2871D8"/>
<path d="M346.655 144.239H185.105C184.312 144.238 183.551 143.922 182.991 143.361C182.43 142.8 182.114 142.039 182.113 141.245V2.99393C182.114 2.20017 182.43 1.4392 182.991 0.877932C183.551 0.316664 184.312 0.000932592 185.105 0H346.655C347.448 0.000932594 348.209 0.316664 348.77 0.877932C349.33 1.4392 349.646 2.20017 349.647 2.99393V141.245C349.646 142.039 349.33 142.8 348.77 143.361C348.209 143.922 347.448 144.238 346.655 144.239ZM185.105 1.19758C184.629 1.19809 184.173 1.38751 183.836 1.72428C183.5 2.06105 183.31 2.51766 183.31 2.99393V141.245C183.31 141.721 183.5 142.178 183.836 142.515C184.173 142.852 184.629 143.041 185.105 143.041H346.655C347.131 143.041 347.587 142.852 347.924 142.515C348.26 142.178 348.45 141.721 348.45 141.245V2.99393C348.45 2.51766 348.26 2.06106 347.924 1.72429C347.587 1.38752 347.131 1.1981 346.655 1.19758H185.105Z" fill="#E6E6E6"/>
<path d="M210.206 131.849C216.936 131.849 222.393 126.389 222.393 119.654C222.393 112.918 216.936 107.458 210.206 107.458C203.476 107.458 198.02 112.918 198.02 119.654C198.02 126.389 203.476 131.849 210.206 131.849Z" fill="#E6E6E6"/>
<path d="M238.351 111.523C237.813 111.523 237.296 111.738 236.915 112.119C236.534 112.5 236.32 113.017 236.32 113.556C236.32 114.095 236.534 114.612 236.915 114.993C237.296 115.375 237.813 115.589 238.351 115.589H334.102C334.641 115.589 335.158 115.375 335.539 114.993C335.919 114.612 336.133 114.095 336.133 113.556C336.133 113.017 335.919 112.5 335.539 112.119C335.158 111.738 334.641 111.523 334.102 111.523H238.351Z" fill="#E6E6E6"/>
<path d="M238.351 123.72C238.084 123.719 237.82 123.772 237.573 123.874C237.326 123.976 237.102 124.125 236.913 124.314C236.724 124.503 236.574 124.727 236.472 124.974C236.37 125.221 236.317 125.485 236.317 125.752C236.317 126.02 236.37 126.284 236.472 126.531C236.574 126.778 236.724 127.002 236.913 127.191C237.102 127.379 237.326 127.529 237.573 127.631C237.82 127.733 238.084 127.785 238.351 127.785H279.553C280.091 127.784 280.607 127.57 280.987 127.189C281.367 126.807 281.581 126.291 281.581 125.752C281.581 125.214 281.367 124.697 280.987 124.316C280.607 123.935 280.091 123.721 279.553 123.72H238.351Z" fill="#E6E6E6"/>
<path d="M385.038 96.0192H223.487C222.694 96.0183 221.934 95.7025 221.373 95.1413C220.812 94.58 220.497 93.819 220.496 93.0253V22.075C220.497 21.2813 220.812 20.5203 221.373 19.959C221.934 19.3977 222.694 19.082 223.487 19.0811H385.038C385.831 19.082 386.591 19.3977 387.152 19.959C387.713 20.5203 388.028 21.2812 388.029 22.075V93.0253C388.028 93.819 387.713 94.58 387.152 95.1413C386.591 95.7025 385.831 96.0183 385.038 96.0192Z" fill="#F2F2F2"/>
<path d="M256.388 43.8105C255.849 43.8105 255.332 44.0247 254.951 44.4059C254.57 44.7871 254.356 45.3041 254.356 45.8432C254.356 46.3822 254.57 46.8992 254.951 47.2804C255.332 47.6616 255.849 47.8758 256.388 47.8758H352.138C352.677 47.8758 353.194 47.6616 353.575 47.2804C353.955 46.8992 354.169 46.3822 354.169 45.8432C354.169 45.3041 353.955 44.7871 353.575 44.4059C353.194 44.0247 352.677 43.8105 352.138 43.8105H256.388Z" fill="#5199FF"/>
<path d="M256.388 55.5889C255.849 55.5889 255.332 55.803 254.951 56.1842C254.57 56.5654 254.356 57.0824 254.356 57.6215C254.356 58.1606 254.57 58.6776 254.951 59.0588C255.332 59.44 255.849 59.6541 256.388 59.6541H352.138C352.677 59.6541 353.194 59.44 353.575 59.0588C353.955 58.6776 354.169 58.1606 354.169 57.6215C354.169 57.0824 353.955 56.5654 353.575 56.1842C353.194 55.803 352.677 55.5889 352.138 55.5889H256.388Z" fill="#5199FF"/>
<path d="M256.388 67.2236C255.849 67.2236 255.332 67.4378 254.951 67.819C254.57 68.2001 254.356 68.7172 254.356 69.2562C254.356 69.7953 254.57 70.3123 254.951 70.6935C255.332 71.0747 255.849 71.2888 256.388 71.2888H297.589C298.128 71.2888 298.645 71.0747 299.026 70.6935C299.406 70.3123 299.62 69.7953 299.62 69.2562C299.62 68.7172 299.406 68.2001 299.026 67.819C298.645 67.4378 298.128 67.2236 297.589 67.2236H256.388Z" fill="#5199FF"/>
<path d="M385.335 103.664C392.065 103.664 397.521 98.2036 397.521 91.4681C397.521 84.7327 392.065 79.2725 385.335 79.2725C378.605 79.2725 373.148 84.7327 373.148 91.4681C373.148 98.2036 378.605 103.664 385.335 103.664Z" fill="#3F3D56"/>
<path d="M384.319 96.8611L380.452 91.884L382.701 90.1333L384.532 92.4896L390.719 85.9541L392.788 87.9156L384.319 96.8611Z" fill="white"/>
</g>
<defs>
<clipPath id="clip0_3847_19982">
<rect width="414" height="214" fill="white"/>
</clipPath>
</defs>
</svg>
